<?xml version="1.0" encoding="UTF-8"?>
<svg width="105px" height="49px" viewBox="0 0 105 49" version="1.1" xmlns="http://www.w3.org/2000/svg" xmlns:xlink="http://www.w3.org/1999/xlink">
    <!-- Generator: Sketch 49.3 (51167) - http://www.bohemiancoding.com/sketch -->
    <title>Colour Frame 3</title>
    <desc>Created with Sketch.</desc>
    <defs>
        <filter x="-9.3%" y="-15.0%" width="118.8%" height="137.4%" filterUnits="objectBoundingBox" id="filter-1">
            <feOffset dx="0" dy="2" in="SourceAlpha" result="shadowOffsetOuter1"></feOffset>
            <feGaussianBlur stdDeviation="2" in="shadowOffsetOuter1" result="shadowBlurOuter1"></feGaussianBlur>
            <feColorMatrix values="0 0 0 0 0   0 0 0 0 0   0 0 0 0 0  0 0 0 0.5 0" type="matrix" in="shadowBlurOuter1" result="shadowMatrixOuter1"></feColorMatrix>
            <feMerge>
                <feMergeNode in="shadowMatrixOuter1"></feMergeNode>
                <feMergeNode in="SourceGraphic"></feMergeNode>
            </feMerge>
        </filter>
        <path d="M43.8060389,10.1759837 C43.7878322,9.33627996 43.6967988,8.54251751 43.4861215,7.83042836 C43.3586748,7.40930036 43.2104204,7.00348612 43.0231516,6.62319478 C42.8644934,6.26587406 42.6642199,5.93918083 42.4483407,5.62269676 C42.4067255,5.56399407 42.3729131,5.5001868 42.3312978,5.4440364 C42.1908463,5.2500623 42.0373899,5.06374506 41.8735298,4.887637 C41.5614153,4.54818231 41.2753103,4.17044326 40.8825662,3.88458669 C40.609466,3.65232822 40.3077553,3.44048808 40.0086456,3.24140939 C37.8992716,1.84020171 35.2306924,1.18681525 32.8326125,1.18681525 L30.4969555,1.12045569 L28.6190665,1.12556027 L27.5994924,1.12045569 C25.3548688,1.1459786 23.1102452,1.13576943 20.8708235,1.21489045 C18.3062825,1.30422063 15.7755539,1.63601844 13.3150511,2.38639195 C8.42265598,3.87692982 5.36133272,7.01114299 4.43799392,12.0085285 C3.65770762,16.2223607 4.1258794,20.3417581 5.61102433,24.3514071 C6.79705952,27.5468752 8.6151266,30.344186 11.5047869,32.2890317 C16.5376335,35.6759216 21.9684262,35.9464645 27.5370695,33.7974356 C31.8286441,32.1435511 35.1838752,29.2237303 37.9096754,25.6352094 C41.1608683,21.3601222 43.5095301,16.725162 43.798236,11.3040962 L43.8164427,10.6660235 L43.8060389,10.1759837 Z" id="path-2"></path>
        <path d="M52.8534586,10.2173308 C52.8716653,9.37762708 52.9626987,8.58386462 53.173376,7.87177547 C53.2982218,7.44809519 53.4490771,7.04483323 53.6337449,6.66454189 C53.7924031,6.30722117 53.9952776,5.98052794 54.2111568,5.66404388 C54.2501711,5.60534119 54.2865844,5.54153391 54.3281997,5.48538351 C54.4686512,5.29140941 54.6221076,5.10509218 54.7833667,4.92898411 C55.0980822,4.58952942 55.3841872,4.21179038 55.7769313,3.9259338 C56.0500315,3.69112304 56.3517422,3.48183519 56.6508519,3.2827565 C58.7602259,1.88154882 61.4262041,1.22816236 63.826885,1.22816236 L66.162542,1.15925051 L68.040431,1.16690738 L69.0574042,1.1618028 C71.3046287,1.18732571 73.5466514,1.17711654 75.788674,1.25368527 C78.350614,1.34301545 80.8813426,1.67481326 83.3444464,2.42773907 C88.2342406,3.91827693 91.2955638,7.0524901 92.2215036,12.0498756 C93.0017899,16.2637078 92.5336181,20.3831053 91.0458722,24.3927542 C89.862438,27.5882224 88.0443709,30.3855331 85.1547106,32.3303788 C80.119263,35.7172687 74.6910713,35.9852593 69.122428,33.8387827 C64.8308534,32.1848982 61.4756223,29.2650775 58.7498221,25.6765565 C55.4986292,21.398917 53.1499674,16.7665091 52.8612615,11.3454433 L52.8430548,10.7073706 L52.8534586,10.2173308 Z" id="path-3"></path>
    </defs>
    <g id="Page-1" stroke="none" stroke-width="1" fill="none" fill-rule="evenodd">
        <g id="frames-icons-balajikannan" transform="translate(-345.000000, -280.000000)">
            <g id="Multicolor-icon" transform="translate(61.000000, 281.000000)">
                <g id="Colour-Frame-3" filter="url(#filter-1)" transform="translate(287.879633, 2.606041)">
                    <path d="M56.8875919,14.187561 C56.9057985,13.3478573 56.9968319,12.5540948 57.2075093,11.8420057 C57.3323551,11.4183254 57.4832104,11.0150635 57.6678782,10.6347721 C57.8265364,10.2774514 58.0294108,9.95075817 58.24529,9.6342741 C58.2843044,9.57557141 58.3207177,9.51176414 58.362333,9.45561374 C58.5027845,9.26163964 58.6562408,9.0753224 58.8175,8.89921433 C59.1322155,8.55975965 59.4183204,8.1820206 59.8110646,7.89616403 C60.0841648,7.66135327 60.3858755,7.45206542 60.6849852,7.25298673 C62.7943592,5.85177905 65.4603374,5.19839259 67.8610183,5.19839259 L70.1966753,5.12948073 L72.0745643,5.13713761 L73.0915374,5.13203302 C75.338762,5.15755593 77.5807846,5.14734677 79.8228073,5.2239155 C82.3847473,5.31324568 84.9154759,5.64504349 87.3785797,6.39796929 C92.2683738,7.88850715 95.3296971,11.0227203 96.2556368,16.0201058 C97.0359232,20.233938 96.5677514,24.3533355 95.0800055,28.3629844 C93.8965713,31.5584526 92.0785042,34.3557634 89.1888439,36.300609 C84.1533963,39.687499 78.7252046,39.9554895 73.1565613,37.8090129 C68.8649866,36.1551284 65.5097555,33.2353077 62.7839554,29.6467867 C59.5327624,25.3691472 57.1841007,20.7367393 56.8953947,15.3156736 L56.877188,14.6776008 L56.8875919,14.187561 Z" id="Stroke-28-Copy" fill="#A8EFF3"></path>
                    <path d="M47.8401722,14.1462139 C47.8219655,13.3065102 47.7309321,12.5127477 47.5202548,11.8006586 C47.392808,11.3795306 47.2445536,10.9737163 47.0572849,10.593425 C46.8986267,10.2361043 46.6983532,9.90941106 46.482474,9.59292699 C46.4408587,9.5342243 46.4070463,9.47041703 46.3654311,9.41426663 C46.2249795,9.22029252 46.0715232,9.03397529 45.9076631,8.85786722 C45.5955486,8.51841254 45.3094436,8.14067349 44.9166995,7.85481691 C44.6435993,7.62255845 44.3418886,7.4107183 44.0427788,7.21163962 C41.9334049,5.81043194 39.2648257,5.15704548 36.8667458,5.15704548 L34.5310888,5.09068591 L32.6531997,5.09579049 L31.6336256,5.09068591 C29.389002,5.11620882 27.1443784,5.10599966 24.9049568,5.18512067 C22.3404158,5.27445085 19.8096872,5.60624867 17.3491844,6.35662218 C12.4567893,7.84716004 9.39546599,10.9813732 8.4721272,15.9787587 C7.69184089,20.1925909 8.16001267,24.3119884 9.64515761,28.3216373 C10.8311928,31.5171055 12.6492599,34.3144163 15.5389202,36.2592619 C20.5717668,39.6461519 26.0025595,39.9166947 31.5712027,37.7676658 C35.8627774,36.1137813 39.2180085,33.1939606 41.9438087,29.6054396 C45.1950016,25.3303524 47.5436634,20.6953922 47.8323693,15.2743264 L47.850576,14.6362537 L47.8401722,14.1462139 Z" id="Stroke-22-Copy" fill="#A8EFF3"></path>
                    <g id="Stroke-22" stroke-linejoin="round">
                        <use fill="#E8F3FF" fill-rule="evenodd" style="mix-blend-mode: multiply;" xlink:href="#path-2"></use>
                        <use stroke="#2D3666" stroke-width="3.93821988" xlink:href="#path-2"></use>
                    </g>
                    <g id="Stroke-28" stroke-linejoin="round">
                        <use fill="#E8F3FF" fill-rule="evenodd" style="mix-blend-mode: multiply;" xlink:href="#path-3"></use>
                        <use stroke="#2D3666" stroke-width="3.93821988" xlink:href="#path-3"></use>
                    </g>
                    <path d="M43.0642467,13.058541 C43.0642467,10.6262078 45.1372073,7.35161859 47.6913445,7.35161859 L48.9918217,7.35161859 C51.5511608,7.35161859 53.6241214,10.6262078 53.6241214,13.058541" id="Stroke-1" stroke="#2D3666" stroke-width="2.62547992" stroke-linejoin="round"></path>
                    <path d="M43.8263263,10.3855267 C43.8211244,10.5233504 43.8055187,10.6560696 43.7977158,10.7938933 C43.8107206,10.6560696 43.8185235,10.5207982 43.8263263,10.3855267" id="Fill-18" fill="#FEFEFE"></path>
                    <path d="M43.8187836,10.5287103 C43.8109807,10.6180404 43.8031779,10.7048183 43.7979759,10.7941485 C43.8057788,10.7048183 43.8135817,10.6154881 43.8187836,10.5287103 M43.8265864,10.385782 C43.8239855,10.4342755 43.8213845,10.4802167 43.8187836,10.5287103 C43.8213845,10.4802167 43.8239855,10.4342755 43.8265864,10.385782" id="Fill-20" fill="#231F20"></path>
                    <path d="M52.8331712,10.4266186 C52.8383731,10.5644423 52.8539788,10.6971614 52.8617816,10.8349852 C52.8487769,10.6946092 52.840974,10.56189 52.8331712,10.4266186" id="Fill-24" fill="#FEFEFE"></path>
                    <path d="M52.8407139,10.5698021 C52.8459158,10.65658 52.8511177,10.7459102 52.8589206,10.8352404 C52.8563196,10.7459102 52.8485168,10.6591323 52.8407139,10.5698021 M52.8329111,10.4268738 C52.835512,10.4753674 52.838113,10.5213086 52.8407139,10.5698021 C52.838113,10.5213086 52.835512,10.4753674 52.8329111,10.4268738" id="Fill-26" fill="#231F20"></path>
                    <path d="M34.9058332,0.697285863 L66.1510978,0.697285863" id="Stroke-30" stroke="#2D3666" stroke-width="2.62547992" stroke-linejoin="round"></path>
                    <path d="M0.33914997,11.7014879 L4.76857522,11.7014879" id="Stroke-56" stroke="#2D3666" stroke-width="3.93821988" stroke-linejoin="round"></path>
                    <path d="M92.0303334,11.7014879 L96.4597587,11.7014879" id="Stroke-58" stroke="#2D3666" stroke-width="3.93821988" stroke-linejoin="round"></path>
                </g>
            </g>
        </g>
    </g>
</svg>