<?xml version="1.0" encoding="UTF-8"?>
<svg width="296px" height="411px" viewBox="0 0 296 411" version="1.1" xmlns="http://www.w3.org/2000/svg" xmlns:xlink="http://www.w3.org/1999/xlink">
    <!-- Generator: Sketch 49.3 (51167) - http://www.bohemiancoding.com/sketch -->
    <title>users-2</title>
    <desc>Created with Sketch.</desc>
    <defs></defs>
    <g id="Page-1" stroke="none" stroke-width="1" fill="none" fill-rule="evenodd">
        <g id="Users-avatars" transform="translate(-607.000000, -76.000000)">
            <g id="row-1" transform="translate(95.000000, 50.000000)">
                <g id="users-2" transform="translate(512.000000, 26.000000)">
                    <g id="svg5401">
                        <path d="M3,409 C3,409 -7.30188,318.688873 81.440002,308.613342 L119.41333,308.613342 L119.41333,291.119995 C119.41333,291.119995 146.125,302.593323 173.17334,292.399994 L174.026672,308.613342 L218.399994,308.613342 C218.399994,308.613342 295.673462,316.327606 291,409 L3,409 L3,409 Z" id="body-bg-flat" fill="#FFFFFF"></path>
                        <path d="M290.261932,410.58667 L290.261932,410.58667 L5.745544,410.58667 L5.745544,410.58667 L0.227661,410.58667 L1.605011,387.056854 C4.294312,341.114624 40.491882,306.053345 81.915009,306.053345 L113.440002,306.053345 L113.440002,310.746674 L84.429718,310.746674 C44.506348,310.746674 9.619324,344.495087 7.027374,388.71701 L6.070648,405.040009 L289.510162,405.040009 L288.980103,388.71701 C286.388153,344.495087 251.501129,310.746674 211.577728,310.746674 L172.746674,310.746674 L172.746674,306.053345 L213.839417,306.053345 C255.262543,306.053345 291.460114,341.114624 294.149414,387.056854 L295.526764,410.58667 L290.261932,410.58667 L290.261932,410.58667 Z" id="Rounded-Rectangle-13-copy" fill="#3B434F"></path>
                        <path d="M123.679993,289.146088 L123.679993,315.461182 C123.679993,329.116669 134.75946,340.186676 148.426666,340.186676 C162.093872,340.186676 173.17334,329.116669 173.17334,315.461182 L173.17334,289.688995 C174.609497,289.251862 176.032135,288.777069 177.440002,288.26413 L177.440002,315.640289 C177.440002,331.78891 164.354797,344.880005 148.213348,344.880005 C132.071899,344.880005 118.986664,331.78891 118.986664,315.640289 L118.986664,287.453674 C120.532501,288.064911 122.098206,288.627106 123.679993,289.146088 L123.679993,289.146088 Z" id="neck-copy-5" fill="#3B434F"></path>
                        <path d="M118.773346,339.76001 C120.304993,339.76001 121.546661,341.001648 121.546661,342.533325 L121.546661,384.346649 C121.546661,385.878326 120.304993,387.119995 118.773346,387.119995 C117.241669,387.119995 116,385.878326 116,384.346649 L116,342.533325 C116,341.001648 117.241669,339.76001 118.773346,339.76001 L118.773346,339.76001 Z" id="Rounded-Rectangle-14" fill="#3B434F"></path>
                        <path d="M177.013336,339.333344 C178.662811,339.333344 180,340.670502 180,342.320007 L180,368.346649 C180,369.996155 178.662811,371.333344 177.013336,371.333344 C175.363831,371.333344 174.026672,369.996155 174.026672,368.346649 L174.026672,342.320007 C174.026672,340.670502 175.363831,339.333344 177.013336,339.333344 L177.013336,339.333344 Z" id="Rounded-Rectangle-15" fill="#3B434F"></path>
                        <path d="M118.773346,384.133331 C119.598083,384.133331 120.266663,384.80191 120.266663,385.626678 L120.266663,396.293335 C120.266663,397.118073 119.598083,397.786652 118.773346,397.786652 C117.948578,397.786652 117.279999,397.118073 117.279999,396.293335 L117.279999,385.626678 C117.279999,384.80191 117.948578,384.133331 118.773346,384.133331 L118.773346,384.133331 Z" id="Rounded-Rectangle-16" fill="#3B434F"></path>
                        <path d="M177.226654,368.346649 C178.051422,368.346649 178.720001,369.015259 178.720001,369.839996 L178.720001,380.506653 C178.720001,381.331421 178.051422,382 177.226654,382 C176.401917,382 175.733337,381.331421 175.733337,380.506653 L175.733337,369.839996 C175.733337,369.015259 176.401917,368.346649 177.226654,368.346649 L177.226654,368.346649 Z" id="Rounded-Rectangle-16-copy" fill="#3B434F"></path>
                        <path d="M102.765503,278.646149 L75.741852,284.851379 C75.741852,284.851379 42.648834,292.347412 64.665649,314.65094 C86.682495,336.954468 143.306671,340.893341 143.306671,340.893341 C143.306671,340.893341 128.335297,333.802094 121.973328,323.82666 L119.839996,287.986664 L102.765503,278.646149 L102.765503,278.646149 Z" id="Shape-1-copy" fill="#F5F3EF"></path>
                        <path d="M144.160004,343.026672 C142.483246,345.148926 95.333374,343.689697 62.666656,315.293335 C39.014038,294.732666 74.613342,282.866669 74.613342,282.866669 L100.640015,276.893341 L123.253326,288.41333 L124.959991,322.973328 C134.479462,337.899689 146.859344,339.610107 144.160004,343.026672 L144.160004,343.026672 Z M120.693329,324.679993 L118.133331,288.41333 L104.480011,280.733337 L78.453339,287.133331 C78.453339,287.133331 46.928406,293.59787 66.933319,312.306671 C88.522644,332.497131 128.461578,337.915588 132.640015,337.480011 C136.970764,337.028503 130.212799,339.606384 120.693329,324.679993 L120.693329,324.679993 Z" id="Shape-1-copy-2" fill="#3B434F"></path>
                        <path d="M194.059265,279.651398 L221.098938,285.875214 C221.098938,285.875214 254.211548,293.393677 232.181702,315.764008 C210.151794,338.134338 153.494049,342.084991 153.494049,342.084991 C153.494049,342.084991 168.474335,334.972534 174.840027,324.967224 L176.97464,289.019897 L194.059265,279.651398 L194.059265,279.651398 Z" id="Shape-1-copy-4" fill="#F5F3EF"></path>
                        <path d="M152.640228,343.798035 C154.317963,345.926666 201.495789,344.463074 234.181854,315.981659 C257.848511,295.359406 222.228119,283.457886 222.228119,283.457886 L196.186005,277.466675 L173.559296,289.021149 L171.851593,323.684662 C162.326508,338.655731 149.939301,340.371246 152.640228,343.798035 L152.640228,343.798035 Z M176.120789,325.396423 L178.682312,289.021149 L192.34375,281.318176 L218.385834,287.737335 C218.385834,287.737335 249.929474,294.221222 229.912659,312.986053 C208.310547,333.237 168.347931,338.671661 164.167053,338.234772 C159.83371,337.781921 166.595703,340.367493 176.120789,325.396423 L176.120789,325.396423 Z" id="Shape-1-copy-6" fill="#3B434F"></path>
                        <path d="M148.214661,21.466644 C201.292542,21.466644 243.186951,71.067871 241.824738,130.664948 L240.376923,194.006104 C239.093597,250.152466 197.845428,294.533325 148.214661,294.533325 C98.583893,294.533325 57.335724,250.152466 56.052399,194.006104 L54.604584,130.664948 C53.242401,71.067871 95.13678,21.466644 148.214661,21.466644 L148.214661,21.466644 Z" id="2-copy-5" fill="#FFFFFF"></path>
                        <path d="M246.089386,128.701141 L244.572327,194.615509 C243.227631,253.042816 200.006287,299.226654 148.001404,299.226654 C95.99649,299.226654 52.775177,253.042816 51.43045,194.615509 L49.913361,128.701141 C48.486023,66.682922 92.384491,15.06665 148.001404,15.06665 C203.618317,15.06665 247.516754,66.682922 246.089386,128.701141 L246.089386,128.701141 Z M147.7883,21.893311 C95.436035,21.893311 54.11438,71.107025 55.457916,130.238495 L56.885956,193.084808 C58.151733,248.792511 98.836029,292.82666 147.7883,292.82666 C196.74057,292.82666 237.424835,248.792511 238.690613,193.084808 L240.118622,130.238495 C241.462219,71.107025 200.140564,21.893311 147.7883,21.893311 L147.7883,21.893311 Z" id="2-line" fill="#3B434F"></path>
                        <path d="M194.079987,232.325928 C186.324768,239.059753 168.808014,245.466644 148.426697,245.466644 C128.045349,245.466644 110.528595,239.059753 102.773346,232.325928 C102.773346,232.325928 101.979889,230.142639 103.144043,228.978485 C104.329742,227.792786 106.186676,228.050842 106.186676,228.050842 C113.933777,234.789246 128.037567,240.34668 148.426697,240.34668 C168.815796,240.34668 182.919586,234.789246 190.666687,228.050842 C190.666687,228.050842 192.561707,227.346893 193.482269,228.267456 C195.25531,230.040497 194.079987,232.325928 194.079987,232.325928 L194.079987,232.325928 Z" id="usta" fill="#3B434F"></path>
                        <path d="M134.34668,255.706665 L161.653351,255.706665 L161.653351,259.973328 L134.34668,259.973328 L134.34668,255.706665 L134.34668,255.706665 Z" id="-" fill="#3B434F"></path>
                        <path d="M49.80722,138.313141 C49.795441,138.313812 48.759613,137.486603 46.803619,136.870758 C45.826019,136.563507 44.611023,136.31076 43.226166,136.248444 C42.88031,136.23288 42.524353,136.229187 42.160126,136.239532 C41.795898,136.249878 41.42337,136.274231 41.044708,136.314667 C40.287476,136.395569 39.505402,136.540955 38.718414,136.767334 C35.567261,137.672913 32.352692,139.874664 30.464783,144.419098 C29.51709,146.691437 28.891907,149.549713 28.726624,153.125916 C28.685272,154.019989 28.672638,154.958923 28.690765,155.944794 C28.708923,156.930664 28.757874,157.96347 28.83963,159.045288 C29.003052,161.208832 29.298157,163.568451 29.737854,166.139679 C29.728241,166.137146 29.327759,173.909668 32.106445,182.84082 C34.718689,191.572784 40.991516,202.299225 52.573334,205.36441 C51.241302,183.185028 51.199921,160.589905 49.80722,138.313141 L49.80722,138.313141 L49.80722,138.313141 Z" id="Shape-11-copy" fill="#FFFFFF"></path>
                        <path d="M51.127869,139.207275 C51.127869,139.207275 30.951477,132.955597 31.66153,153.69809 C31.66153,153.69809 34.665436,183.77536 35.969879,186.547363 C35.969879,186.547363 43.893707,204.059387 56.970856,204.83548 C69.751862,205.593994 56.970856,204.83548 56.970856,204.83548 L57.129578,210.480011 C57.129578,210.480011 34.144928,207.53302 29.705597,181.04541 L26.201721,156.982697 C26.201721,156.982697 23.48111,125.138062 49.871185,133.234802 C75.580475,141.122681 49.871185,133.234802 49.871185,133.234802 L51.127869,139.207275" id="Shape-3" fill="#3B434F"></path>
                        <path d="M44.468323,180.994812 C44.468323,180.994812 43.339172,181.848145 42.369171,181.848145 C41.39917,181.848145 40.283783,180.994812 40.283783,180.994812 L38.201569,160.012024 C38.201569,160.012024 41.074493,149.678558 53.265381,155.139496 L53.553558,161.139221 C53.553558,161.139221 42.85791,157.346008 43.079071,162.069427 C43.291962,166.615967 44.468323,180.994812 44.468323,180.994812 L44.468323,180.994812 Z" id="Shape-4" fill="#3B434F"></path>
                        <path d="M245.813416,138.362122 C245.825256,138.362793 246.865631,137.536163 248.83017,136.920715 C249.812073,136.613678 251.032379,136.361115 252.423309,136.298828 C252.77066,136.283295 253.128174,136.279602 253.494019,136.289948 C253.859833,136.300262 254.233978,136.324615 254.614319,136.365021 C255.374847,136.445862 256.16037,136.591156 256.950806,136.817383 C260.115753,137.722351 263.344391,139.922607 265.24057,144.463959 C266.192413,146.734741 266.820343,149.591064 266.986328,153.164856 C267.027863,154.058319 267.040558,154.996613 267.022369,155.981812 C267.00412,156.96701 266.954956,157.999115 266.872833,159.0802 C266.70871,161.242279 266.412292,163.600311 265.970673,166.169769 C265.980347,166.167236 266.382568,173.934509 263.591705,182.859589 C260.968048,191.585632 254.667725,202.304779 243.035187,205.367889 C244.373047,183.203552 244.414612,160.623779 245.813416,138.362122 L245.813416,138.362122 L245.813416,138.362122 Z" id="Shape-11-copy_1" fill="#FFFFFF"></path>
                        <path d="M244.482605,139.255676 C244.482605,139.255676 264.747375,133.00824 264.03421,153.736633 C264.03421,153.736633 261.017151,183.793488 259.70697,186.563599 C259.70697,186.563599 251.748444,204.063751 238.614044,204.839325 C225.777039,205.597321 238.614044,204.839325 238.614044,204.839325 L238.45462,210.480011 C238.45462,210.480011 261.539917,207.535034 265.998688,181.065399 L269.517914,157.019012 C269.517914,157.019012 272.250458,125.195984 245.744781,133.287231 C219.922913,141.169769 245.744781,133.287231 245.744781,133.287231 L244.482605,139.255676" id="Shape-3_1" fill="#3B434F"></path>
                        <path d="M251.171326,181.014832 C251.171326,181.014832 252.30542,181.867584 253.279663,181.867584 C254.253906,181.867584 255.374176,181.014832 255.374176,181.014832 L257.465515,160.046295 C257.465515,160.046295 254.580017,149.719849 242.335724,155.177063 L242.046295,161.172729 C242.046295,161.172729 252.788788,157.38208 252.56665,162.102295 C252.352844,166.645752 251.171326,181.014832 251.171326,181.014832 L251.171326,181.014832 Z" id="Shape-4_1" fill="#3B434F"></path>
                        <path d="M155.893341,179.333344 L157.386658,179.333344 C160.474121,183.526306 161.730225,189.969757 163.359985,195.546661 C163.865051,197.274963 163.375061,200.297974 162.933319,201.519989 C161.315552,205.995514 156.235687,205.915192 152.053345,207.919983 C150.930115,208.458435 150.094604,209.387817 148.640015,209.626678 C147.691711,208.791351 146.546722,208.627289 146.079987,207.279999 C144.927673,205.693268 146.412811,204.702393 147.573334,204.079987 C149.679565,202.950409 156.181488,201.837097 156.959991,199.813324 C157.923218,198.71759 157.282745,195.423157 156.959991,194.266663 C156.133392,191.304504 155.736633,188.831543 154.613342,186.160004 C153.867188,184.385498 152.557159,182.514496 153.333344,180.399994 C153.976532,180.12381 155.366638,179.809784 155.893341,179.333344 L155.893341,179.333344 Z" id="new_vector_shape_done" fill="#3B434F"></path>
                        <path d="M93.813324,149.210663 L109.17334,149.210663 C111.294098,149.210663 113.013336,151.273743 113.013336,153.818665 C113.013336,156.363586 111.294098,158.426666 109.17334,158.426666 L93.813324,158.426666 C91.692566,158.426666 89.973328,156.363586 89.973328,153.818665 C89.973328,151.273743 91.692566,149.210663 93.813324,149.210663 L93.813324,149.210663 Z" id="Rounded-Rectangle-9" fill="#3B434F"></path>
                        <path d="M187.679993,148.186676 L203.040009,148.186676 C205.160767,148.186676 206.880005,150.249725 206.880005,152.794678 C206.880005,155.3396 205.160767,157.402649 203.040009,157.402649 L187.679993,157.402649 C185.559235,157.402649 183.839996,155.3396 183.839996,152.794678 C183.839996,150.249725 185.559235,148.186676 187.679993,148.186676 L187.679993,148.186676 Z" id="Rounded-Rectangle-9-copy" fill="#3B434F"></path>
                        <path d="M199.626678,174.640015 C205.5177,174.640015 210.293335,179.415649 210.293335,185.306671 C210.293335,191.197693 205.5177,195.973328 199.626678,195.973328 C193.735626,195.973328 188.960022,191.197693 188.960022,185.306671 C188.960022,179.415649 193.735626,174.640015 199.626678,174.640015 L199.626678,174.640015 Z" id="Ellipse-3" fill="#EDF1F1"></path>
                        <path d="M96.373352,174.640015 C102.264374,174.640015 107.040009,179.415649 107.040009,185.306671 C107.040009,191.197693 102.264374,195.973328 96.373352,195.973328 C90.4823,195.973328 85.706696,191.197693 85.706696,185.306671 C85.706696,179.415649 90.4823,174.640015 96.373352,174.640015 L96.373352,174.640015 Z" id="Ellipse-3-copy" fill="#EDF1F1"></path>
                        <path d="M240.939911,136.879608 C240.362732,141.809509 239.855652,147.842255 238.789673,153.23587 C235.602081,169.36438 221.743378,184.307343 198.07959,186.009949 C174.415833,187.712555 154.275787,175.799591 153.095551,159.401581 C152.895447,156.621277 152.360138,153.501251 151.949341,150.467896 C148.600494,148.611298 145.148895,148.607056 141.594574,150.455261 C141.179474,153.557281 140.623993,156.759369 140.419128,159.606171 C139.235199,176.058533 119.031647,188.010986 95.293243,186.302734 C71.55484,184.594482 57.652435,169.60202 54.454773,153.420044 C53.385437,148.008545 52.87677,141.955811 52.29776,137.009552 L48.809448,136.758514 L49.299438,129.949463 L50.150574,130.010712 L71.739105,131.56427 L89.962189,132.875641 L108.219147,134.189423 L136.655823,136.235779 C138.617004,136.483826 139.921082,137.324921 140.760895,138.580536 C144.844788,140.368225 148.811005,140.375366 152.659515,138.601654 C153.49173,137.265259 154.813354,136.36554 156.847015,136.108368 L185.194305,134.068787 L203.39389,132.759338 L221.559692,131.452301 L243.080353,129.90387 L243.928802,129.842834 L244.417267,136.629395 L240.939911,136.879608 L240.939911,136.879608 Z M129.019867,144.237274 L73.2883,140.226746 C65.999054,139.598328 63.415344,147.78952 62.966095,154.032532 C62.018951,167.194397 76.684265,178.974823 95.721985,180.344818 C114.759705,181.714783 130.960663,172.155579 131.907806,158.993683 C132.357056,152.750702 134.39621,148.895111 129.019867,144.237274 L129.019867,144.237274 Z M230.305115,153.846344 C229.857269,147.623962 227.281677,139.459808 220.01535,140.086151 L164.458984,144.083435 C159.099548,148.725922 161.132294,152.568726 161.580109,158.791107 C162.524292,171.909515 178.674316,181.437164 197.652191,180.071686 C216.630066,178.706238 231.249298,166.964722 230.305115,153.846344 L230.305115,153.846344 Z" id="glasses" fill="#3B444F"></path>
                        <path d="M55.016968,166.106659 C55.016968,166.106659 66.886597,114.110748 77.215393,99.888 C87.544189,85.665253 96.482269,82.263428 101.121399,81.828369 C105.760529,81.393341 142.293213,92.192657 192.47644,79.821716 C192.47644,79.821716 212.26358,79.032013 220.651367,98.884705 C220.651367,98.884705 238.335724,130.522369 241.142212,162.093414 L244.557343,162.093414 C244.557343,162.093414 251.794525,106.750519 248.826324,73.801849 C245.858032,40.85321 202.721863,24.639526 202.721863,24.639526 L212.113495,17.616302 C212.113495,17.616302 190.18689,10.838074 181.377228,14.606415 L188.207489,0.559998 C188.207489,0.559998 143.957397,0.648193 119.050873,20.626251 L119.904663,10.593109 C119.904663,10.593109 32.114838,24.055573 50.748047,164.100037 L55.016968,166.106659 L55.016968,166.106659 Z" id="Shape-7" fill="#3B434F"></path>
                    </g>
                </g>
            </g>
        </g>
    </g>
</svg>